# Made in Blockbench 4.6.5
mtllib Mesa.mtl

o cylinder
v 0.5 0 0.5
v 0.5 0.375 0.5
v 0.5180421959121758 0 0.53125
v 0.5180421959121758 0.375 0.53125
v 0.5360843918243516 0 0.5
v 0.5360843918243516 0.375 0.5
v 0.5180421959121758 0 0.46875
v 0.5180421959121758 0.375 0.46875
v 0.4819578040878242 0 0.46875
v 0.4819578040878242 0.375 0.46875
v 0.46391560817564836 0 0.5
v 0.46391560817564836 0.375 0.5
v 0.4819578040878242 0 0.53125
v 0.4819578040878242 0.375 0.53125
vt 0.399646875 0.921875
vt 0.3951359375 0.9296875
vt 0.390625 0.921875
vt 0.296875 0.65625
vt 0.3125 0.65625
vt 0.3125 0.75
vt 0.296875 0.75
vt 0.3951359375 0.9140625
vt 0.399646875 0.921875
vt 0.390625 0.921875
vt 0.3951359375 0.890625
vt 0.399646875 0.8984375
vt 0.390625 0.8984375
vt 0.3125 0.84375
vt 0.328125 0.84375
vt 0.328125 0.9375
vt 0.3125 0.9375
vt 0.399646875 0.8828125
vt 0.3951359375 0.890625
vt 0.390625 0.8828125
vt 0.390625 0.859375
vt 0.399646875 0.859375
vt 0.3951359375 0.8671875
vt 0.296875 0.84375
vt 0.3125 0.84375
vt 0.3125 0.9375
vt 0.296875 0.9375
vt 0.399646875 0.859375
vt 0.390625 0.859375
vt 0.3951359375 0.8515625
vt 0.40625 0.7734375
vt 0.4107609375 0.765625
vt 0.415271875 0.7734375
vt 0.3125 0.75
vt 0.328125 0.75
vt 0.328125 0.84375
vt 0.3125 0.84375
vt 0.4107609375 0.765625
vt 0.40625 0.7578125
vt 0.415271875 0.7578125
vt 0.4107609375 0.7421875
vt 0.40625 0.734375
vt 0.415271875 0.734375
vt 0.3125 0.65625
vt 0.328125 0.65625
vt 0.328125 0.75
vt 0.3125 0.75
vt 0.40625 0.734375
vt 0.4107609375 0.7265625
vt 0.415271875 0.734375
vt 0.399646875 0.8359375
vt 0.390625 0.8359375
vt 0.3951359375 0.828125
vt 0.296875 0.75
vt 0.3125 0.75
vt 0.3125 0.84375
vt 0.296875 0.84375
vt 0.390625 0.8203125
vt 0.399646875 0.8203125
vt 0.3951359375 0.828125
vn 0 -1 0
vn 0.8660254037844387 0 0.5000000000000003
vn 0 1 0
vn 0 -1 0
vn 0.8660254037844387 0 -0.5000000000000003
vn 0 1 0
vn 0 -1 0
vn 0 0 -1
vn 0 1 0
vn 0 -1 0
vn -0.8660254037844387 0 -0.5000000000000003
vn 0 1 0
vn 0 -1 0
vn -0.8660254037844387 0 0.5000000000000003
vn 0 1 0
vn 0 -1 0
vn 0 0 1
vn 0 1 0
usemtl m_748dee26-61cd-e87d-24ab-c9a1d53b3e83
f 5/1/1 3/2/1 1/3/1
f 3/4/2 5/5/2 6/6/2 4/7/2
f 4/8/3 6/9/3 2/10/3
f 7/11/4 5/12/4 1/13/4
f 5/14/5 7/15/5 8/16/5 6/17/5
f 6/18/6 8/19/6 2/20/6
f 9/21/7 7/22/7 1/23/7
f 7/24/8 9/25/8 10/26/8 8/27/8
f 8/28/9 10/29/9 2/30/9
f 11/31/10 9/32/10 1/33/10
f 9/34/11 11/35/11 12/36/11 10/37/11
f 10/38/12 12/39/12 2/40/12
f 13/41/13 11/42/13 1/43/13
f 11/44/14 13/45/14 14/46/14 12/47/14
f 12/48/15 14/49/15 2/50/15
f 3/51/16 13/52/16 1/53/16
f 13/54/17 3/55/17 4/56/17 14/57/17
f 14/58/18 4/59/18 2/60/18
o cylinder
v -0.5 0 0.5
v -0.5 0.375 0.5
v -0.4819578040878242 0 0.53125
v -0.4819578040878242 0.375 0.53125
v -0.46391560817564836 0 0.5
v -0.46391560817564836 0.375 0.5
v -0.4819578040878242 0 0.46875
v -0.4819578040878242 0.375 0.46875
v -0.5180421959121758 0 0.46875
v -0.5180421959121758 0.375 0.46875
v -0.5360843918243516 0 0.5
v -0.5360843918243516 0.375 0.5
v -0.5180421959121758 0 0.53125
v -0.5180421959121758 0.375 0.53125
vt 0.415271875 0.703125
vt 0.4107609375 0.7109375
vt 0.40625 0.703125
vt 0.328125 0.65625
vt 0.34375 0.65625
vt 0.34375 0.75
vt 0.328125 0.75
vt 0.4107609375 0.6953125
vt 0.415271875 0.703125
vt 0.40625 0.703125
vt 0.4107609375 0.671875
vt 0.415271875 0.6796875
vt 0.40625 0.6796875
vt 0.34375 0.84375
vt 0.359375 0.84375
vt 0.359375 0.9375
vt 0.34375 0.9375
vt 0.415271875 0.6640625
vt 0.4107609375 0.671875
vt 0.40625 0.6640625
vt 0.390625 0.796875
vt 0.399646875 0.796875
vt 0.3951359375 0.8046875
vt 0.328125 0.84375
vt 0.34375 0.84375
vt 0.34375 0.9375
vt 0.328125 0.9375
vt 0.399646875 0.796875
vt 0.390625 0.796875
vt 0.3951359375 0.7890625
vt 0.390625 0.7734375
vt 0.3951359375 0.765625
vt 0.399646875 0.7734375
vt 0.34375 0.75
vt 0.359375 0.75
vt 0.359375 0.84375
vt 0.34375 0.84375
vt 0.3951359375 0.765625
vt 0.390625 0.7578125
vt 0.399646875 0.7578125
vt 0.3951359375 0.7421875
vt 0.390625 0.734375
vt 0.399646875 0.734375
vt 0.34375 0.65625
vt 0.359375 0.65625
vt 0.359375 0.75
vt 0.34375 0.75
vt 0.390625 0.734375
vt 0.3951359375 0.7265625
vt 0.399646875 0.734375
vt 0.399646875 0.7109375
vt 0.390625 0.7109375
vt 0.3951359375 0.703125
vt 0.328125 0.75
vt 0.34375 0.75
vt 0.34375 0.84375
vt 0.328125 0.84375
vt 0.390625 0.6953125
vt 0.399646875 0.6953125
vt 0.3951359375 0.703125
vn 0 -1 0
vn 0.8660254037844387 0 0.5000000000000003
vn 0 1 0
vn 0 -1 0
vn 0.8660254037844387 0 -0.5000000000000003
vn 0 1 0
vn 0 -1 0
vn 0 0 -1
vn 0 1 0
vn 0 -1 0
vn -0.8660254037844387 0 -0.5000000000000003
vn 0 1 0
vn 0 -1 0
vn -0.8660254037844387 0 0.5000000000000003
vn 0 1 0
vn 0 -1 0
vn 0 0 1
vn 0 1 0
usemtl m_748dee26-61cd-e87d-24ab-c9a1d53b3e83
f 19/61/19 17/62/19 15/63/19
f 17/64/20 19/65/20 20/66/20 18/67/20
f 18/68/21 20/69/21 16/70/21
f 21/71/22 19/72/22 15/73/22
f 19/74/23 21/75/23 22/76/23 20/77/23
f 20/78/24 22/79/24 16/80/24
f 23/81/25 21/82/25 15/83/25
f 21/84/26 23/85/26 24/86/26 22/87/26
f 22/88/27 24/89/27 16/90/27
f 25/91/28 23/92/28 15/93/28
f 23/94/29 25/95/29 26/96/29 24/97/29
f 24/98/30 26/99/30 16/100/30
f 27/101/31 25/102/31 15/103/31
f 25/104/32 27/105/32 28/106/32 26/107/32
f 26/108/33 28/109/33 16/110/33
f 17/111/34 27/112/34 15/113/34
f 27/114/35 17/115/35 18/116/35 28/117/35
f 28/118/36 18/119/36 16/120/36
o cylinder
v -0.5 0 -0.5
v -0.5 0.375 -0.5
v -0.4819578040878242 0 -0.46875
v -0.4819578040878242 0.375 -0.46875
v -0.46391560817564836 0 -0.5
v -0.46391560817564836 0.375 -0.5
v -0.4819578040878242 0 -0.53125
v -0.4819578040878242 0.375 -0.53125
v -0.5180421959121758 0 -0.53125
v -0.5180421959121758 0.375 -0.53125
v -0.5360843918243516 0 -0.5
v -0.5360843918243516 0.375 -0.5
v -0.5180421959121758 0 -0.46875
v -0.5180421959121758 0.375 -0.46875
vt 0.415271875 0.640625
vt 0.4107609375 0.6484375
vt 0.40625 0.640625
vt 0.328125 0.5625
vt 0.34375 0.5625
vt 0.34375 0.65625
vt 0.328125 0.65625
vt 0.4107609375 0.6328125
vt 0.415271875 0.640625
vt 0.40625 0.640625
vt 0.4107609375 0.609375
vt 0.415271875 0.6171875
vt 0.40625 0.6171875
vt 0.34375 0.5625
vt 0.359375 0.5625
vt 0.359375 0.65625
vt 0.34375 0.65625
vt 0.399646875 0.5859375
vt 0.3951359375 0.59375
vt 0.390625 0.5859375
vt 0.390625 0.671875
vt 0.399646875 0.671875
vt 0.3951359375 0.6796875
vt 0.296875 0.5625
vt 0.3125 0.5625
vt 0.3125 0.65625
vt 0.296875 0.65625
vt 0.399646875 0.671875
vt 0.390625 0.671875
vt 0.3951359375 0.6640625
vt 0.390625 0.6484375
vt 0.3951359375 0.640625
vt 0.399646875 0.6484375
vt 0.359375 0.84375
vt 0.375 0.84375
vt 0.375 0.9375
vt 0.359375 0.9375
vt 0.3951359375 0.640625
vt 0.390625 0.6328125
vt 0.399646875 0.6328125
vt 0.3951359375 0.6171875
vt 0.390625 0.609375
vt 0.399646875 0.609375
vt 0.359375 0.75
vt 0.375 0.75
vt 0.375 0.84375
vt 0.359375 0.84375
vt 0.390625 0.609375
vt 0.3951359375 0.6015625
vt 0.399646875 0.609375
vt 0.415271875 0.9296875
vt 0.40625 0.9296875
vt 0.4107609375 0.921875
vt 0.3125 0.5625
vt 0.328125 0.5625
vt 0.328125 0.65625
vt 0.3125 0.65625
vt 0.40625 0.9140625
vt 0.415271875 0.9140625
vt 0.4107609375 0.921875
vn 0 -1 0
vn 0.8660254037844387 0 0.5000000000000003
vn 0 1 0
vn 0 -1 0
vn 0.8660254037844387 0 -0.5000000000000003
vn 0 1 0
vn 0 -1 0
vn 0 0 -1
vn 0 1 0
vn 0 -1 0
vn -0.8660254037844387 0 -0.5000000000000003
vn 0 1 0
vn 0 -1 0
vn -0.8660254037844387 0 0.5000000000000003
vn 0 1 0
vn 0 -1 0
vn 0 0 1
vn 0 1 0
usemtl m_748dee26-61cd-e87d-24ab-c9a1d53b3e83
f 33/121/37 31/122/37 29/123/37
f 31/124/38 33/125/38 34/126/38 32/127/38
f 32/128/39 34/129/39 30/130/39
f 35/131/40 33/132/40 29/133/40
f 33/134/41 35/135/41 36/136/41 34/137/41
f 34/138/42 36/139/42 30/140/42
f 37/141/43 35/142/43 29/143/43
f 35/144/44 37/145/44 38/146/44 36/147/44
f 36/148/45 38/149/45 30/150/45
f 39/151/46 37/152/46 29/153/46
f 37/154/47 39/155/47 40/156/47 38/157/47
f 38/158/48 40/159/48 30/160/48
f 41/161/49 39/162/49 29/163/49
f 39/164/50 41/165/50 42/166/50 40/167/50
f 40/168/51 42/169/51 30/170/51
f 31/171/52 41/172/52 29/173/52
f 41/174/53 31/175/53 32/176/53 42/177/53
f 42/178/54 32/179/54 30/180/54
o cylinder
v 0.5 0 -0.5
v 0.5 0.375 -0.5
v 0.5180421959121758 0 -0.46875
v 0.5180421959121758 0.375 -0.46875
v 0.5360843918243516 0 -0.5
v 0.5360843918243516 0.375 -0.5
v 0.5180421959121758 0 -0.53125
v 0.5180421959121758 0.375 -0.53125
v 0.4819578040878242 0 -0.53125
v 0.4819578040878242 0.375 -0.53125
v 0.46391560817564836 0 -0.5
v 0.46391560817564836 0.375 -0.5
v 0.4819578040878242 0 -0.46875
v 0.4819578040878242 0.375 -0.46875
vt 0.415271875 0.890625
vt 0.4107609375 0.8984375
vt 0.40625 0.890625
vt 0.375 0.84375
vt 0.390625 0.84375
vt 0.390625 0.9375
vt 0.375 0.9375
vt 0.4107609375 0.8828125
vt 0.415271875 0.890625
vt 0.40625 0.890625
vt 0.4107609375 0.859375
vt 0.415271875 0.8671875
vt 0.40625 0.8671875
vt 0.375 0.75
vt 0.390625 0.75
vt 0.390625 0.84375
vt 0.375 0.84375
vt 0.415271875 0.8515625
vt 0.4107609375 0.859375
vt 0.40625 0.8515625
vt 0.40625 0.828125
vt 0.415271875 0.828125
vt 0.4107609375 0.8359375
vt 0.359375 0.65625
vt 0.375 0.65625
vt 0.375 0.75
vt 0.359375 0.75
vt 0.415271875 0.828125
vt 0.40625 0.828125
vt 0.4107609375 0.8203125
vt 0.40625 0.6015625
vt 0.4107609375 0.59375
vt 0.415271875 0.6015625
vt 0.375 0.65625
vt 0.390625 0.65625
vt 0.390625 0.75
vt 0.375 0.75
vt 0.4107609375 0.59375
vt 0.40625 0.5859375
vt 0.415271875 0.5859375
vt 0.4263859375 0.9296875
vt 0.421875 0.921875
vt 0.430896875 0.921875
vt 0.375 0.5625
vt 0.390625 0.5625
vt 0.390625 0.65625
vt 0.375 0.65625
vt 0.421875 0.921875
vt 0.4263859375 0.9140625
vt 0.430896875 0.921875
vt 0.415271875 0.8046875
vt 0.40625 0.8046875
vt 0.4107609375 0.796875
vt 0.359375 0.5625
vt 0.375 0.5625
vt 0.375 0.65625
vt 0.359375 0.65625
vt 0.40625 0.7890625
vt 0.415271875 0.7890625
vt 0.4107609375 0.796875
vn 0 -1 0
vn 0.8660254037844387 0 0.5000000000000003
vn 0 1 0
vn 0 -1 0
vn 0.8660254037844387 0 -0.5000000000000003
vn 0 1 0
vn 0 -1 0
vn 0 0 -1
vn 0 1 0
vn 0 -1 0
vn -0.8660254037844387 0 -0.5000000000000003
vn 0 1 0
vn 0 -1 0
vn -0.8660254037844387 0 0.5000000000000003
vn 0 1 0
vn 0 -1 0
vn 0 0 1
vn 0 1 0
usemtl m_748dee26-61cd-e87d-24ab-c9a1d53b3e83
f 47/181/55 45/182/55 43/183/55
f 45/184/56 47/185/56 48/186/56 46/187/56
f 46/188/57 48/189/57 44/190/57
f 49/191/58 47/192/58 43/193/58
f 47/194/59 49/195/59 50/196/59 48/197/59
f 48/198/60 50/199/60 44/200/60
f 51/201/61 49/202/61 43/203/61
f 49/204/62 51/205/62 52/206/62 50/207/62
f 50/208/63 52/209/63 44/210/63
f 53/211/64 51/212/64 43/213/64
f 51/214/65 53/215/65 54/216/65 52/217/65
f 52/218/66 54/219/66 44/220/66
f 55/221/67 53/222/67 43/223/67
f 53/224/68 55/225/68 56/226/68 54/227/68
f 54/228/69 56/229/69 44/230/69
f 45/231/70 55/232/70 43/233/70
f 55/234/71 45/235/71 46/236/71 56/237/71
f 56/238/72 46/239/72 44/240/72
o cube
v 0.59375 0.4375 0.59375
v 0.59375 0.4375 -0.59375
v 0.59375 0.375 0.59375
v 0.59375 0.375 -0.59375
v -0.59375 0.4375 0.59375
v -0.59375 0.4375 -0.59375
v -0.59375 0.375 0.59375
v -0.59375 0.375 -0.59375
vt 0.59375 1
vt 0.296875 1
vt 0.296875 0.984375
vt 0.59375 0.984375
vt 0.59375 0.96875
vt 0.59375 0.984375
vt 0.296875 0.984375
vt 0.296875 0.96875
vt 0 0.703125
vt 0.296875 0.703125
vt 0.296875 1
vt 0 1
vt 0.296875 0.40625
vt 0.296875 0.703125
vt 0 0.703125
vt 0 0.40625
vt 0.59375 0.953125
vt 0.59375 0.96875
vt 0.296875 0.96875
vt 0.296875 0.953125
vt 0.59375 0.953125
vt 0.296875 0.953125
vt 0.296875 0.9375
vt 0.59375 0.9375
vn 1 0 0
vn -1 0 0
vn 0 1 0
vn 0 -1 0
vn 0 0 1
vn 0 0 -1
usemtl m_748dee26-61cd-e87d-24ab-c9a1d53b3e83
f 58/241/73 57/242/73 59/243/73 60/244/73
f 63/245/74 61/246/74 62/247/74 64/248/74
f 61/249/75 57/250/75 58/251/75 62/252/75
f 60/253/76 59/254/76 63/255/76 64/256/76
f 59/257/77 57/258/77 61/259/77 63/260/77
f 62/261/78 58/262/78 60/263/78 64/264/78