# Made in Blockbench 4.7.1
mtllib pen.mtl

o cylinder
v 0 0 0
v 0 0.459375 0
v 0.0180421959121758 0 0.03125
v 0.0180421959121758 0.459375 0.03125
v 0.03608439182435161 0 2.209531747343556e-18
v 0.03608439182435161 0.459375 2.209531747343556e-18
v 0.0180421959121758 0 -0.03125
v 0.0180421959121758 0.459375 -0.03125
v -0.018042195912175808 0 -0.031249999999999997
v -0.018042195912175808 0.459375 -0.031249999999999997
v -0.03608439182435161 0 -6.6285952420306674e-18
v -0.03608439182435161 0.459375 -6.6285952420306674e-18
v -0.01804219591217582 0 0.03124999999999999
v -0.01804219591217582 0.459375 0.03124999999999999
vt 0.8485875 0.78125
vt 0.83054375 0.8125
vt 0.8125 0.78125
vt 0.375 0.6875
vt 0.4375 0.6875
vt 0.4375 1
vt 0.375 1
vt 0.83054375 0.625
vt 0.8485875 0.65625
vt 0.8125 0.65625
vt 0.83054375 0.75
vt 0.8485875 0.78125
vt 0.8125 0.78125
vt 0 0.3125
vt 0.0625 0.3125
vt 0.0625 0.625
vt 0 0.625
vt 0.8485875 0.65625
vt 0.83054375 0.6875
vt 0.8125 0.65625
vt 0.79445625 0.75
vt 0.83054375 0.75
vt 0.8125 0.78125
vt 0 0.6875
vt 0.0625 0.6875
vt 0.0625 1
vt 0 1
vt 0.83054375 0.6875
vt 0.79445625 0.6875
vt 0.8125 0.65625
vt 0.7764125 0.78125
vt 0.79445625 0.75
vt 0.8125 0.78125
vt 0.125 0.3125
vt 0.1875 0.3125
vt 0.1875 0.625
vt 0.125 0.625
vt 0.79445625 0.6875
vt 0.7764125 0.65625
vt 0.8125 0.65625
vt 0.79445625 0.8125
vt 0.7764125 0.78125
vt 0.8125 0.78125
vt 0.25 0.6875
vt 0.3125 0.6875
vt 0.3125 1
vt 0.25 1
vt 0.7764125 0.65625
vt 0.79445625 0.625
vt 0.8125 0.65625
vt 0.83054375 0.8125
vt 0.79445625 0.8125
vt 0.8125 0.78125
vt 0.125 0.6875
vt 0.1875 0.6875
vt 0.1875 1
vt 0.125 1
vt 0.79445625 0.625
vt 0.83054375 0.625
vt 0.8125 0.65625
vn 0 -1 0
vn 0.8660254037844387 0 0.5000000000000001
vn 0 1 0
vn 0 -1 0
vn 0.8660254037844388 0 -0.5000000000000001
vn 0 1 0
vn 0 -1 0
vn -9.614813431917822e-17 0 -1
vn 0 1 0
vn 0 -1 0
vn -0.8660254037844387 0 -0.5000000000000001
vn 0 1 0
vn 0 -1 0
vn -0.8660254037844388 0 0.49999999999999967
vn 0 1 0
vn 0 -1 0
vn -2.884444029575345e-16 0 1
vn 0 1 0
usemtl m_9ab1e86d-5219-0756-c3ca-3a560709a6e8
f 5/1/1 3/2/1 1/3/1
f 3/4/2 5/5/2 6/6/2 4/7/2
f 4/8/3 6/9/3 2/10/3
f 7/11/4 5/12/4 1/13/4
f 5/14/5 7/15/5 8/16/5 6/17/5
f 6/18/6 8/19/6 2/20/6
f 9/21/7 7/22/7 1/23/7
f 7/24/8 9/25/8 10/26/8 8/27/8
f 8/28/9 10/29/9 2/30/9
f 11/31/10 9/32/10 1/33/10
f 9/34/11 11/35/11 12/36/11 10/37/11
f 10/38/12 12/39/12 2/40/12
f 13/41/13 11/42/13 1/43/13
f 11/44/14 13/45/14 14/46/14 12/47/14
f 12/48/15 14/49/15 2/50/15
f 3/51/16 13/52/16 1/53/16
f 13/54/17 3/55/17 4/56/17 14/57/17
f 14/58/18 4/59/18 2/60/18
o cylinder
v 0 0.40625 0
v 0 0.5625 0
v 0.02165063509461096 0.40625 0.0375
v 0.02165063509461096 0.5625 0.0375
v 0.043301270189221926 0.40625 2.651438096812267e-18
v 0.043301270189221926 0.5625 2.651438096812267e-18
v 0.02165063509461096 0.40625 -0.0375
v 0.02165063509461096 0.5625 -0.0375
v -0.02165063509461097 0.40625 -0.03749999999999999
v -0.02165063509461097 0.5625 -0.03749999999999999
v -0.043301270189221926 0.40625 -7.954314290436801e-18
v -0.043301270189221926 0.5625 -7.954314290436801e-18
v -0.021650635094610984 0.40625 0.037499999999999985
v -0.021650635094610984 0.5625 0.037499999999999985
vt 0.1058 0.16249999999999998
vt 0.08415 0.19999999999999996
vt 0.0625 0.16249999999999998
vt 0.625 0.5625
vt 0.6875 0.5625
vt 0.6875 0.75
vt 0.625 0.75
vt 0.83415 0.925
vt 0.8558 0.9625
vt 0.8125 0.9625
vt 0.08415 0.125
vt 0.1058 0.16249999999999998
vt 0.0625 0.16249999999999998
vt 0.375 0.1875
vt 0.4375 0.1875
vt 0.4375 0.375
vt 0.375 0.375
vt 0.8558 0.9625
vt 0.83415 1
vt 0.8125 0.9625
vt 0.04085 0.125
vt 0.08415 0.125
vt 0.0625 0.16249999999999998
vt 0.5 0.3125
vt 0.5625 0.3125
vt 0.5625 0.5
vt 0.5 0.5
vt 0.83415 1
vt 0.79085 1
vt 0.8125 0.9625
vt 0.019200000000000002 0.16249999999999998
vt 0.04085 0.125
vt 0.0625 0.16249999999999998
vt 0.625 0.3125
vt 0.6875 0.3125
vt 0.6875 0.5
vt 0.625 0.5
vt 0.79085 1
vt 0.7692 0.9625
vt 0.8125 0.9625
vt 0.04085 0.19999999999999996
vt 0.019200000000000002 0.16249999999999998
vt 0.0625 0.16249999999999998
vt 0.25 0.1875
vt 0.3125 0.1875
vt 0.3125 0.375
vt 0.25 0.375
vt 0.7692 0.9625
vt 0.79085 0.925
vt 0.8125 0.9625
vt 0.08415 0.19999999999999996
vt 0.04085 0.19999999999999996
vt 0.0625 0.16249999999999998
vt 0.625 0.8125
vt 0.6875 0.8125
vt 0.6875 1
vt 0.625 1
vt 0.79085 0.925
vt 0.83415 0.925
vt 0.8125 0.9625
vn 0 -1 0
vn 0.8660254037844387 0 0.5
vn 0 1 0
vn 0 -1 0
vn 0.8660254037844387 0 -0.5
vn 0 1 0
vn 0 -1 0
vn -1.6024689053196368e-16 0 -1
vn 0 1 0
vn 0 -1 0
vn -0.8660254037844388 0 -0.5000000000000001
vn 0 1 0
vn 0 -1 0
vn -0.8660254037844389 0 0.4999999999999997
vn 0 1 0
vn 0 -1 0
vn -3.204937810639272e-16 0 1
vn 0 1 0
usemtl m_9ab1e86d-5219-0756-c3ca-3a560709a6e8
f 19/61/19 17/62/19 15/63/19
f 17/64/20 19/65/20 20/66/20 18/67/20
f 18/68/21 20/69/21 16/70/21
f 21/71/22 19/72/22 15/73/22
f 19/74/23 21/75/23 22/76/23 20/77/23
f 20/78/24 22/79/24 16/80/24
f 23/81/25 21/82/25 15/83/25
f 21/84/26 23/85/26 24/86/26 22/87/26
f 22/88/27 24/89/27 16/90/27
f 25/91/28 23/92/28 15/93/28
f 23/94/29 25/95/29 26/96/29 24/97/29
f 24/98/30 26/99/30 16/100/30
f 27/101/31 25/102/31 15/103/31
f 25/104/32 27/105/32 28/106/32 26/107/32
f 26/108/33 28/109/33 16/110/33
f 17/111/34 27/112/34 15/113/34
f 27/114/35 17/115/35 18/116/35 28/117/35
f 28/118/36 18/119/36 16/120/36
o cube
v -0.03125 0.5312499999999999 0.03125
v -0.03125 0.5312499999999999 -0.03125
v -0.03125 0.3593749999999999 0.03125
v -0.03125 0.3593749999999999 -0.03125
v -0.046875 0.5312499999999999 0.03125
v -0.046875 0.5312499999999999 -0.03125
v -0.046875 0.3593749999999999 0.03125
v -0.046875 0.3593749999999999 -0.03125
vt 0.3125 0.625
vt 0.25 0.625
vt 0.25 0.4375
vt 0.3125 0.4375
vt 0.4375 0.4375
vt 0.4375 0.625
vt 0.375 0.625
vt 0.375 0.4375
vt 0.75 0.5
vt 0.8125 0.5
vt 0.8125 0.5625
vt 0.75 0.5625
vt 0.5625 0.1875
vt 0.5625 0.25
vt 0.5 0.25
vt 0.5 0.1875
vt 0.5625 0.8125
vt 0.5625 1
vt 0.5 1
vt 0.5 0.8125
vt 0.5625 0.75
vt 0.5 0.75
vt 0.5 0.5625
vt 0.5625 0.5625
vn 1 0 0
vn -1 0 0
vn 0 1 0
vn 0 -1 0
vn 0 0 1
vn 0 0 -1
usemtl m_9ab1e86d-5219-0756-c3ca-3a560709a6e8
f 30/121/37 29/122/37 31/123/37 32/124/37
f 35/125/38 33/126/38 34/127/38 36/128/38
f 33/129/39 29/130/39 30/131/39 34/132/39
f 32/133/40 31/134/40 35/135/40 36/136/40
f 31/137/41 29/138/41 33/139/41 35/140/41
f 34/141/42 30/142/42 32/143/42 36/144/42