# Made in Blockbench 4.6.5
mtllib teste.mtl

o cylinder
v 1.3492293702041833e-18 0.125 0.003124999999999997
v 1.3492293702041833e-18 0.625 0.003124999999999997
v 0.012944173824159222 0.125 0.034374999999999996
v 0.012944173824159222 0.625 0.034374999999999996
v 0.03125 0.125 0.01606917382415922
v 0.03125 0.625 0.01606917382415922
v 0.03125 0.125 -0.009819173824159222
v 0.03125 0.625 -0.009819173824159222
v 0.012944173824159227 0.125 -0.028125000000000004
v 0.012944173824159227 0.625 -0.028125000000000004
v -0.012944173824159216 0.125 -0.028125000000000004
v -0.012944173824159216 0.625 -0.028125000000000004
v -0.031249999999999993 0.125 -0.009819173824159243
v -0.031249999999999993 0.625 -0.009819173824159243
v -0.03125 0.125 0.016069173824159223
v -0.03125 0.625 0.016069173824159223
v -0.012944173824159239 0.125 0.034374999999999996
v -0.012944173824159239 0.625 0.034374999999999996
vt 0.36323689110637963 0.90625
vt 0.3483755691186039 0.9421272303774539
vt 0.3125 0.90625
vt 0.03125 0.5625
vt 0.0625 0.5625
vt 0.0625 0.8125
vt 0.03125 0.8125
vt 0.25 0.8867631088936203
vt 0.28587723037745394 0.9016244308813961
vt 0.25 0.9375
vt 0.22337723037745394 0.59375
vt 0.23823689110637963 0.6296255691186039
vt 0.1875 0.6296255691186039
vt 0.125 0.75
vt 0.15625 0.75
vt 0.15625 1
vt 0.125 1
vt 0.37962723037745394 0.9641244308813961
vt 0.39448689110637963 1
vt 0.34375 1
vt 0.12500000000000003 0.6875
vt 0.16087723037745394 0.7023613219877758
vt 0.125 0.7382368911063797
vt 0.09375 0.5625
vt 0.125 0.5625
vt 0.125 0.8125
vt 0.09375 0.8125
vt 0.36323689110637963 0.8703727696225461
vt 0.3483755691186039 0.90625
vt 0.3125 0.8703727696225461
vt 0.375 0.6608755691186039
vt 0.3898596607289257 0.625
vt 0.42573689110637963 0.6608755691186039
vt 0.1875 0.75
vt 0.21875 0.75
vt 0.21875 1
vt 0.1875 1
vt 0.3796255691186039 0.7663903392710743
vt 0.34375 0.78125
vt 0.34375 0.7305131088936203
vt 0.25 0.8483772303774539
vt 0.2648613219877758 0.8125
vt 0.30073689110637963 0.8483772303774539
vt 0.21875 0.75
vt 0.25 0.75
vt 0.25 1
vt 0.21875 1
vt 0.16087723037745394 0.6875
vt 0.125 0.6726386780122242
vt 0.1608772303774539 0.6367631088936203
vt 0.38985966072892575 0.9108755691186039
vt 0.375 0.875
vt 0.42573689110637963 0.875
vt 0.15625 0.75
vt 0.1875 0.75
vt 0.1875 1
vt 0.15625 1
vt 0.41087556911860385 0.625
vt 0.375 0.6101403392710743
vt 0.41087556911860385 0.5742631088936203
vt 0.28587723037745394 0.6757368911063797
vt 0.25 0.6608755691186039
vt 0.28587723037745394 0.625
vt 0.0625 0.5625
vt 0.09375 0.5625
vt 0.09375 0.8125
vt 0.0625 0.8125
vt 0.29611132198777573 0.8125
vt 0.28125 0.7766227696225461
vt 0.33198689110637963 0.7766227696225461
vt 0.16087556911860387 0.5983772303774539
vt 0.125 0.6132368911063797
vt 0.12500000000000003 0.5625
vt 0 0.5625
vt 0.03125 0.5625
vt 0.03125 0.8125
vt 0 0.8125
vt 0.40625 1
vt 0.4211096607289257 0.9641244308813961
vt 0.45698689110637963 1
vn 0 -1 0
vn 0.7071067811865475 0 0.7071067811865476
vn 0 1 0
vn 0 -1 0
vn 1 0 0
vn 0 1 0
vn 0 -1 0
vn 0.7071067811865476 0 -0.7071067811865475
vn 0 1 0
vn 0 -1 0
vn 0 0 -1
vn 0 1 0
vn 0 -1 0
vn -0.7071067811865472 0 -0.7071067811865479
vn 0 1 0
vn 0 -1 0
vn -1 0 -2.680315483308929e-16
vn 0 1 0
vn 0 -1 0
vn -0.7071067811865478 0 0.7071067811865472
vn 0 1 0
vn 0 -1 0
vn 0 0 1
vn 0 1 0
usemtl m_a6d7421e-34c7-3b02-49ae-57d67b518d66
f 5/1/1 3/2/1 1/3/1
f 3/4/2 5/5/2 6/6/2 4/7/2
f 4/8/3 6/9/3 2/10/3
f 7/11/4 5/12/4 1/13/4
f 5/14/5 7/15/5 8/16/5 6/17/5
f 6/18/6 8/19/6 2/20/6
f 9/21/7 7/22/7 1/23/7
f 7/24/8 9/25/8 10/26/8 8/27/8
f 8/28/9 10/29/9 2/30/9
f 11/31/10 9/32/10 1/33/10
f 9/34/11 11/35/11 12/36/11 10/37/11
f 10/38/12 12/39/12 2/40/12
f 13/41/13 11/42/13 1/43/13
f 11/44/14 13/45/14 14/46/14 12/47/14
f 12/48/15 14/49/15 2/50/15
f 15/51/16 13/52/16 1/53/16
f 13/54/17 15/55/17 16/56/17 14/57/17
f 14/58/18 16/59/18 2/60/18
f 17/61/19 15/62/19 1/63/19
f 15/64/20 17/65/20 18/66/20 16/67/20
f 16/68/21 18/69/21 2/70/21
f 3/71/22 17/72/22 1/73/22
f 17/74/23 3/75/23 4/76/23 18/77/23
f 18/78/24 4/79/24 2/80/24
o cone
v 1.3492293702041833e-18 0.625 0.003124999999999997
v 1.3492293702041833e-18 0.75 0.003124999999999997
v 0.012944173824159222 0.625 0.034374999999999996
v 0.03125 0.625 0.01606917382415922
v 0.03125 0.625 -0.009819173824159222
v 0.012944173824159227 0.625 -0.028125000000000004
v -0.012944173824159216 0.625 -0.028125000000000004
v -0.031249999999999993 0.625 -0.009819173824159243
v -0.03125 0.625 0.016069173824159223
v -0.012944173824159239 0.625 0.034374999999999996
vt 0.36323689110637963 0.625
vt 0.3483755691186039 0.6608772303774539
vt 0.3125 0.625
vt 0.07314491013354132 0.828125
vt 0.10745857026708265 0.8463029730663877
vt 0.053729285133541325 0.90625
vt 0.28587723037745394 0.5625
vt 0.30073689110637963 0.5983755691186039
vt 0.25 0.5983755691186039
vt 0.24356506739011546 0.7101140177313261
vt 0.28125 0.7007485582791175
vt 0.28125 0.78125
vt 0.18750000000000003 0.65625
vt 0.22337723037745394 0.6711113219877758
vt 0.1875 0.7069868911063797
vt 0 0.9400529730663877
vt 0.03431366013354133 0.921875
vt 0.053729285133541325 1
vt 0.40625 0.8483755691186039
vt 0.4211096607289257 0.8125
vt 0.45698689110637963 0.8483755691186039
vt 0.03431366013354133 0.921875
vt 0.07314491013354132 0.921875
vt 0.053729285133541325 1
vt 0.28125 0.7233772303774539
vt 0.2961113219877758 0.6875
vt 0.33198689110637963 0.7233772303774539
vt 0.07314491013354132 0.921875
vt 0.10745857026708265 0.9400529730663877
vt 0.053729285133541325 1
vt 0.38985966072892575 0.7233755691186039
vt 0.375 0.6875
vt 0.42573689110637963 0.6875
vt 0.2632485582791176 1
vt 0.2726140177313261 0.9623150673901155
vt 0.34375 1
vt 0.37962723037745394 0.8319868911063797
vt 0.34375 0.8171255691186039
vt 0.37962723037745394 0.78125
vt 0 0.8463029730663877
vt 0.03431366013354133 0.828125
vt 0.053729285133541325 0.90625
vt 0.3483755691186039 0.5983772303774539
vt 0.3125 0.6132368911063797
vt 0.3125 0.5625
vt 0.03431366013354133 0.828125
vt 0.07314491013354132 0.828125
vt 0.053729285133541325 0.90625
vn 0 -1 0
vn 0.6859943405700353 0.24253562503633297 0.6859943405700354
vn 0 -1 0
vn 0.9701425001453319 0.24253562503633297 0
vn 0 -1 0
vn 0.6859943405700355 0.24253562503633302 -0.6859943405700354
vn 0 -1 0
vn 0 0.24253562503633297 -0.9701425001453319
vn 0 -1 0
vn -0.685994340570035 0.242535625036333 -0.6859943405700357
vn 0 -1 0
vn -0.9701425001453319 0.24253562503633294 -2.600287964155568e-16
vn 0 -1 0
vn -0.6859943405700356 0.24253562503633305 0.6859943405700352
vn 0 -1 0
vn 0 0.24253562503633297 0.9701425001453319
usemtl m_a6d7421e-34c7-3b02-49ae-57d67b518d66
f 22/81/25 21/82/25 19/83/25
f 21/84/26 22/85/26 20/86/26
f 23/87/27 22/88/27 19/89/27
f 22/90/28 23/91/28 20/92/28
f 24/93/29 23/94/29 19/95/29
f 23/96/30 24/97/30 20/98/30
f 25/99/31 24/100/31 19/101/31
f 24/102/32 25/103/32 20/104/32
f 26/105/33 25/106/33 19/107/33
f 25/108/34 26/109/34 20/110/34
f 27/111/35 26/112/35 19/113/35
f 26/114/36 27/115/36 20/116/36
f 28/117/37 27/118/37 19/119/37
f 27/120/38 28/121/38 20/122/38
f 21/123/39 28/124/39 19/125/39
f 28/126/40 21/127/40 20/128/40
o sphere
v 4.818676322157797e-18 0.09375000000000003 0.0031250000000000128
v 0.009152913087920397 0.1029029130879204 0.02522208691207961
v 0.0220970869120796 0.1029029130879204 0.012277913087920405
v 0.0220970869120796 0.1029029130879204 -0.006027913087920396
v 0.009152913087920397 0.1029029130879204 -0.018972086912079612
v -0.0091529130879204 0.1029029130879204 -0.018972086912079612
v -0.022097086912079608 0.1029029130879204 -0.006027913087920396
v -0.03125 0.12500000000000003 0.01606917382415923
v -0.022097086912079608 0.1029029130879204 0.012277913087920405
v -0.0091529130879204 0.1029029130879204 0.02522208691207961
v 0.012944173824159225 0.12500000000000003 0.03437500000000001
v 0.03125000000000001 0.12500000000000003 0.01606917382415923
v 0.03125000000000001 0.12500000000000003 -0.009819173824159234
v 0.012944173824159225 0.12500000000000003 -0.028124999999999976
v -0.0129441738241592 0.12500000000000003 -0.028124999999999976
v -0.03125 0.12500000000000003 -0.009819173824159234
v -0.012944173824159229 0.12500000000000003 0.03437500000000001
vt 0.46116875 0.90625
vt 0.46685625 0.875
vt 0.4943125 0.875
vt 0.5 0.90625
vt 0.15625 0.4973529549943202
vt 0.13060682868434279 0.5071648574061033
vt 0.1306068286843428 0.46875
vt 0.42991875 0.78125
vt 0.43560625 0.75
vt 0.4630625 0.75
vt 0.46875 0.78125
vt 0.03125 0.4973529549943202
vt 0.005606828684342792 0.5071648574061033
vt 0.005606828684342808 0.46875
vt 0.125 0.5625
vt 0.1306875 0.53125
vt 0.15814375 0.53125
vt 0.16383124999999998 0.5625
vt 0.4943931713156572 0.8411029549943202
vt 0.46875 0.8509148574061033
vt 0.46875 0.8125
vt 0.15625 0.59375
vt 0.1619375 0.5625
vt 0.18939375 0.5625
vt 0.19508124999999998 0.59375
vt 0.4631431713156572 0.6223529549943202
vt 0.4375 0.6321648574061033
vt 0.4375 0.59375
vt 0.08616875 0.5625
vt 0.09185625 0.53125
vt 0.1193125 0.53125
vt 0.125 0.5625
vt 0.09375 0.4973529549943202
vt 0.06810682868434279 0.5071648574061033
vt 0.06810682868434281 0.46875
vt 0.42991875 0.75
vt 0.43560625 0.71875
vt 0.4630625 0.71875
vt 0.46875 0.75
vt 0.0625 0.4973529549943202
vt 0.03685682868434279 0.5071648574061033
vt 0.036856828684342806 0.46875
vt 0.1875 0.5625
vt 0.1931875 0.53125
vt 0.22064375 0.53125
vt 0.22633124999999998 0.5625
vt 0.11939317131565721 0.4973529549943202
vt 0.09375 0.5071648574061033
vt 0.09375000000000001 0.46875
vt 0.40625 0.9375
vt 0.4119375 0.90625
vt 0.43939375 0.90625
vt 0.44508125 0.9375
vt 0.4631431713156572 0.5598529549943202
vt 0.4375 0.5696648574061033
vt 0.4375 0.53125
vt 0 1
vt 0 1
vt 0 1
vt 0 1
vt 0 1
vt 0 1
vt 0 1
vt 0 1
vt 0 1
vt 0 1
vt 0 1
vt 0 1
vn 0.6532814824381884 -0.38268343236508984 0.6532814824381883
vn 0.2705980500730983 -0.9238795325112868 0.27059805007309823
vn 0.9238795325112867 -0.38268343236509017 0
vn 0.38268343236508956 -0.923879532511287 0
vn 0.6532814824381883 -0.3826834323650902 -0.653281482438188
vn 0.2705980500730982 -0.923879532511287 -0.270598050073098
vn 0 -0.3826834323650887 -0.9238795325112874
vn 0 -0.9238795325112871 -0.38268343236508917
vn -0.653281482438189 -0.38268343236508806 -0.6532814824381885
vn -0.2705980500730981 -0.9238795325112872 -0.27059805007309795
vn -0.9238795325112867 -0.3826834323650897 0
vn -0.38268343236508934 -0.923879532511287 0
vn -0.6532814824381885 -0.3826834323650895 0.6532814824381883
vn -0.2705980500730982 -0.923879532511287 0.2705980500730981
vn 0 -0.3826834323650899 0.9238795325112867
vn 0 -0.923879532511287 0.38268343236508945
vn 0 1 0
vn 0 1 0
vn 0 1 0
usemtl m_a6d7421e-34c7-3b02-49ae-57d67b518d66
f 39/129/41 30/130/41 31/131/41 40/132/41
f 31/133/42 30/134/42 29/135/42
f 40/136/43 31/137/43 32/138/43 41/139/43
f 32/140/44 31/141/44 29/142/44
f 41/143/45 32/144/45 33/145/45 42/146/45
f 33/147/46 32/148/46 29/149/46
f 42/150/47 33/151/47 34/152/47 43/153/47
f 34/154/48 33/155/48 29/156/48
f 43/157/49 34/158/49 35/159/49 44/160/49
f 35/161/50 34/162/50 29/163/50
f 44/164/51 35/165/51 37/166/51 36/167/51
f 37/168/52 35/169/52 29/170/52
f 36/171/53 37/172/53 38/173/53 45/174/53
f 38/175/54 37/176/54 29/177/54
f 45/178/55 38/179/55 30/180/55 39/181/55
f 30/182/56 38/183/56 29/184/56
f 43/185/57 44/186/57 36/187/57 45/188/57
f 45/189/58 39/190/58 40/191/58 41/192/58
f 41/193/59 42/194/59 43/195/59 45/196/59